<?xml version="1.0" encoding="iso-8859-1"?>
<!-- Generator: Adobe Illustrator 19.0.0, SVG Export Plug-In . SVG Version: 6.00 Build 0)  -->
<svg version="1.1" id="Capa_1" xmlns="http://www.w3.org/2000/svg" xmlns:xlink="http://www.w3.org/1999/xlink" x="0px" y="0px"
	 viewBox="0 0 512 512" style="enable-background:new 0 0 512 512;" xml:space="preserve">
<path style="fill:#455A64;" d="M448,240H272v-80c0-8.832-7.168-16-16-16s-16,7.168-16,16v80H64c-8.832,0-16,7.168-16,16v96
	c0,8.832,7.168,16,16,16s16-7.168,16-16v-80h160v80c0,8.832,7.168,16,16,16s16-7.168,16-16v-80h160v80c0,8.832,7.168,16,16,16
	s16-7.168,16-16v-96C464,247.168,456.832,240,448,240z"/>
<g>
	<path style="fill:#4CAF50;" d="M112,336H16c-8.832,0-16,7.168-16,16v96c0,8.832,7.168,16,16,16h96c8.832,0,16-7.168,16-16v-96
		C128,343.168,120.832,336,112,336z"/>
	<path style="fill:#4CAF50;" d="M304,336h-96c-8.832,0-16,7.168-16,16v96c0,8.832,7.168,16,16,16h96c8.832,0,16-7.168,16-16v-96
		C320,343.168,312.832,336,304,336z"/>
</g>
<path style="fill:#FFC107;" d="M304,48h-96c-8.832,0-16,7.168-16,16v96c0,8.832,7.168,16,16,16h96c8.832,0,16-7.168,16-16V64
	C320,55.168,312.832,48,304,48z"/>
<path style="fill:#4CAF50;" d="M496,336h-96c-8.832,0-16,7.168-16,16v96c0,8.832,7.168,16,16,16h96c8.832,0,16-7.168,16-16v-96
	C512,343.168,504.832,336,496,336z"/>
<g>
</g>
<g>
</g>
<g>
</g>
<g>
</g>
<g>
</g>
<g>
</g>
<g>
</g>
<g>
</g>
<g>
</g>
<g>
</g>
<g>
</g>
<g>
</g>
<g>
</g>
<g>
</g>
<g>
</g>
</svg>
